<?xml version="1.0" standalone="no"?><!DOCTYPE svg PUBLIC "-//W3C//DTD SVG 1.1//EN" "http://www.w3.org/Graphics/SVG/1.1/DTD/svg11.dtd"><svg t="1769944519029" class="icon" viewBox="0 0 1066 1024" version="1.1" xmlns="http://www.w3.org/2000/svg" p-id="11643" xmlns:xlink="http://www.w3.org/1999/xlink" width="208.203125" height="200"><path d="M890.089089 1024H175.758071a175.967307 175.967307 0 0 1-175.758071-175.758071V175.758071A175.967307 175.967307 0 0 1 175.758071 0h714.331018a175.967307 175.967307 0 0 1 175.967307 175.758071v672.483858a175.967307 175.967307 0 0 1-175.967307 175.758071zM175.758071 41.84716A134.120147 134.120147 0 0 0 41.84716 175.758071v672.483858a134.120147 134.120147 0 0 0 133.910911 133.910911h714.331018a134.120147 134.120147 0 0 0 134.120147-133.910911V175.758071A134.120147 134.120147 0 0 0 890.089089 41.84716z" fill="#0586FF" p-id="11644"></path><path d="M356.537801 632.310584H145.209644v-211.328157h211.328157z m-169.480997-41.847159h127.633838v-127.633838h-127.633838z" fill="#0586FF" p-id="11645"></path><path d="M232.251737 618.501022h44.985697v187.26604H232.251737zM223.673069 181.198202h55.238251V424.748672h-55.238251z" fill="#0586FF" p-id="11646"></path><path d="M642.353903 713.912546H430.81651v-188.312219H642.353903z m-169.690233-41.84716h127.843073v-104.617899h-127.843073z" fill="#FFAF04" p-id="11647"></path><path d="M512.418472 689.222722h55.238251v182.453616h-55.238251zM508.861463 320.75848h55.238251v229.950143h-55.238251z" fill="#FFAF04" p-id="11648"></path><path d="M927.542297 565.7736h-211.328157V316.573764h211.328157z m-169.480997-41.847159h127.633837v-165.505517h-127.633837z" fill="#0586FF" p-id="11649"></path><path d="M797.816101 544.85002h55.238251v262.381692h-55.238251zM794.259093 147.092767h55.238251v194.380057h-55.238251z" fill="#0586FF" p-id="11650"></path></svg>